<svg width="29" height="29" viewBox="0 0 29 29" fill="none" xmlns="http://www.w3.org/2000/svg">
<circle cx="14.5" cy="14.5" r="13.0682" fill="url(#paint0_radial_66_1285)" stroke="url(#paint1_linear_66_1285)" stroke-width="1.13636"/>
<path d="M16.1295 14.7841L21.4859 9.4277C21.7401 9.17394 21.8831 8.82958 21.8834 8.47039C21.8837 8.11119 21.7414 7.76658 21.4876 7.51237C21.2338 7.25815 20.8895 7.11516 20.5303 7.11484C20.1711 7.11453 19.8265 7.25691 19.5723 7.51068L14.2159 12.8671L8.85947 7.51068C8.60525 7.25646 8.26047 7.11365 7.90095 7.11365C7.54144 7.11365 7.19665 7.25646 6.94244 7.51068C6.68823 7.76489 6.54541 8.10968 6.54541 8.46919C6.54541 8.8287 6.68823 9.17349 6.94244 9.4277L12.2988 14.7841L6.94244 20.1405C6.68823 20.3947 6.54541 20.7395 6.54541 21.099C6.54541 21.4585 6.68823 21.8033 6.94244 22.0575C7.19665 22.3117 7.54144 22.4546 7.90095 22.4546C8.26047 22.4546 8.60525 22.3117 8.85947 22.0575L14.2159 16.7011L19.5723 22.0575C19.8265 22.3117 20.1713 22.4546 20.5308 22.4546C20.8903 22.4546 21.2351 22.3117 21.4893 22.0575C21.7435 21.8033 21.8863 21.4585 21.8863 21.099C21.8863 20.7395 21.7435 20.3947 21.4893 20.1405L16.1295 14.7841Z" fill="white"/>
<defs>
<radialGradient id="paint0_radial_66_1285" cx="0" cy="0" r="1" gradientUnits="userSpaceOnUse" gradientTransform="translate(20.5) rotate(116.565) scale(26.8328)">
<stop stop-color="#F60B0B" stop-opacity="0.51"/>
<stop offset="0.640625" stop-color="#F60B0B"/>
<stop offset="1" stop-color="#AD2A2A"/>
</radialGradient>
<linearGradient id="paint1_linear_66_1285" x1="4.5" y1="17.5" x2="37.5" y2="-0.500001" gradientUnits="userSpaceOnUse">
<stop offset="0.383688" stop-color="#FF0000"/>
<stop offset="1" stop-color="#C71616" stop-opacity="0.74"/>
</linearGradient>
</defs>
</svg>
