<svg width="27" height="27" viewBox="0 0 27 27" fill="none" xmlns="http://www.w3.org/2000/svg">
<circle cx="13.5" cy="13.5" r="13" fill="url(#paint0_radial_75_2780)" stroke="url(#paint1_linear_75_2780)"/>
<path d="M7.03635 5.43978C7.08057 5.3114 7.16375 5.20002 7.2743 5.12119C7.38485 5.04235 7.51725 4.99998 7.65303 5C10.6325 5 13.0152 5.59833 14.7357 6.77911C16.8143 8.20565 17.9336 10.4559 18.0726 13.4778L21.3479 13.4778C21.4756 13.4778 21.6005 13.5153 21.7071 13.5856C21.8137 13.656 21.8972 13.756 21.9475 13.8734C21.9977 13.9908 22.0123 14.1204 21.9896 14.2461C21.9668 14.3717 21.9077 14.4879 21.8195 14.5803L14.9721 21.7538C14.9112 21.8175 14.838 21.8683 14.7569 21.9029C14.6759 21.9376 14.5886 21.9555 14.5005 21.9555C14.4123 21.9555 14.3251 21.9376 14.244 21.9029C14.163 21.8683 14.0898 21.8175 14.0289 21.7538L7.18146 14.5803C7.09327 14.4879 7.03413 14.3717 7.01138 14.2461C6.98864 14.1204 7.00328 13.9908 7.0535 13.8734C7.10372 13.756 7.1873 13.6559 7.29388 13.5856C7.40045 13.5153 7.52534 13.4778 7.65303 13.4778L10.9043 13.4778C10.8489 11.6436 10.5518 10.2578 9.98157 9.15451C9.3653 7.96232 8.44456 7.09784 7.25075 6.1661C7.14372 6.08251 7.06545 5.9676 7.02687 5.83739C6.98829 5.70719 6.99132 5.56818 7.03554 5.43978L7.03635 5.43978Z" fill="white"/>
<defs>
<radialGradient id="paint0_radial_75_2780" cx="0" cy="0" r="1" gradientUnits="userSpaceOnUse" gradientTransform="translate(19.5 -0.999999) rotate(116.565) scale(26.8328)">
<stop stop-color="#2CF60B" stop-opacity="0.51"/>
<stop offset="0.640625" stop-color="#2CF60B"/>
<stop offset="1" stop-color="#2CAD2A"/>
</radialGradient>
<linearGradient id="paint1_linear_75_2780" x1="3.5" y1="16.5" x2="36.5" y2="-1.5" gradientUnits="userSpaceOnUse">
<stop offset="0.383688" stop-color="#05FF00"/>
<stop offset="1" stop-color="#16C71D" stop-opacity="0.74"/>
</linearGradient>
</defs>
</svg>
