<svg width="27" height="27" viewBox="0 0 27 27" fill="none" xmlns="http://www.w3.org/2000/svg">
<circle cx="13.5" cy="13.5" r="13" fill="url(#paint0_radial_73_1272)" stroke="url(#paint1_linear_73_1272)"/>
<path d="M4 13.5C4 10.3917 6.09215 8 9.14072 8C12.1451 8 14.2821 10.4658 14.2821 13.5C14.2821 16.594 12.2049 19 9.14072 19C6.1071 19 4 16.594 4 13.5ZM11.9508 13.5C11.9508 11.6918 11.0093 10.0629 9.14072 10.0629C7.27273 10.0629 6.33126 11.6918 6.33126 13.5C6.33126 15.3238 7.24284 16.9377 9.14072 16.9377C11.0386 16.9377 11.9508 15.3238 11.9508 13.5ZM15.2073 9.19552C15.2073 8.58281 15.6563 8.08966 16.3288 8.08966C16.9707 8.08966 17.4496 8.50809 17.4496 9.19552V12.424L21.1264 8.50809C21.2908 8.32877 21.5741 8.08966 21.9925 8.08966C22.5604 8.08966 23.099 8.52304 23.099 9.16563C23.099 9.55417 22.8593 9.86799 22.3668 10.3611L19.5417 13.1407L22.9944 16.7428C23.3531 17.1015 23.622 17.4296 23.622 17.8786C23.622 18.5809 23.0685 18.9091 22.4558 18.9091C22.023 18.9091 21.7397 18.6557 21.3201 18.2067L17.4496 14.0218V17.8331C17.4496 18.4159 17.0012 18.9091 16.3288 18.9091C15.6862 18.9091 15.2073 18.4907 15.2073 17.8331V9.19552Z" fill="white"/>
<defs>
<radialGradient id="paint0_radial_73_1272" cx="0" cy="0" r="1" gradientUnits="userSpaceOnUse" gradientTransform="translate(19.5 -0.999999) rotate(116.565) scale(26.8328)">
<stop stop-color="#2CF60B" stop-opacity="0.51"/>
<stop offset="0.640625" stop-color="#2CF60B"/>
<stop offset="1" stop-color="#2CAD2A"/>
</radialGradient>
<linearGradient id="paint1_linear_73_1272" x1="3.5" y1="16.5" x2="36.5" y2="-1.5" gradientUnits="userSpaceOnUse">
<stop offset="0.383688" stop-color="#05FF00"/>
<stop offset="1" stop-color="#16C71D" stop-opacity="0.74"/>
</linearGradient>
</defs>
</svg>
