<svg width="27" height="27" viewBox="0 0 27 27" fill="none" xmlns="http://www.w3.org/2000/svg">
<circle cx="13.5" cy="13.5" r="13" fill="url(#paint0_radial_78_1711)" stroke="url(#paint1_linear_78_1711)"/>
<path d="M16.6549 18.4742H18.2801C17.3854 19.3351 16.2727 19.9405 15.0582 20.2227C13.7047 20.5372 12.2879 20.4357 10.9931 19.9314C9.69834 19.427 8.58605 18.5435 7.80188 17.3964C7.0177 16.2493 6.59819 14.8922 6.59829 13.5027L6.59831 13.3205H6.41614H5H4.81789L4.81785 13.5026C4.81747 15.188 5.30782 16.837 6.22903 18.2484C7.15023 19.6597 8.46244 20.7723 10.0054 21.4503C11.5484 22.1283 13.2554 22.3424 14.9181 22.0664C16.447 21.8126 17.8775 21.1546 19.0628 20.1638V20.8794C19.0628 21.1155 19.1566 21.3419 19.3236 21.5088C19.4905 21.6758 19.7169 21.7696 19.9531 21.7696C20.1892 21.7696 20.4156 21.6758 20.5825 21.5088C20.7495 21.3419 20.8433 21.1155 20.8433 20.8794V17.584C20.8433 17.3479 20.7495 17.1215 20.5825 16.9545C20.4156 16.7876 20.1892 16.6938 19.9531 16.6938H16.6549C16.4188 16.6938 16.1923 16.7876 16.0254 16.9545C15.8584 17.1215 15.7646 17.3479 15.7646 17.584C15.7646 17.8201 15.8584 18.0465 16.0254 18.2135C16.1923 18.3804 16.4188 18.4742 16.6549 18.4742ZM12.0751 4.93557C10.5456 5.19008 9.11474 5.84921 7.92947 6.8412V6.12457C7.92947 5.88847 7.83568 5.66204 7.66873 5.49509C7.50178 5.32814 7.27535 5.23435 7.03925 5.23435C6.80314 5.23435 6.57671 5.32814 6.40976 5.49509C6.24281 5.66204 6.14902 5.88847 6.14902 6.12457V9.42276C6.14902 9.65887 6.24281 9.8853 6.40976 10.0522C6.57671 10.2192 6.80314 10.313 7.03925 10.313H10.3389C10.575 10.313 10.8014 10.2192 10.9683 10.0522C11.1353 9.8853 11.2291 9.65887 11.2291 9.42276C11.2291 9.18666 11.1353 8.96023 10.9683 8.79328C10.8014 8.62633 10.575 8.53254 10.3389 8.53254H8.71489C9.60947 7.67119 10.7222 7.06535 11.9369 6.78282C13.2905 6.46801 14.7075 6.56933 16.0025 7.07352C17.2975 7.57771 18.4101 8.46126 19.1944 9.60845C19.9788 10.7556 20.3984 12.113 20.3983 13.5027L20.3982 13.6848H20.5804H21.9965H22.1786L22.1787 13.5028C22.1798 11.8166 21.6898 10.1665 20.7684 8.75432C19.8469 7.3421 18.5341 6.22889 16.9902 5.55072C15.4464 4.87255 13.7384 4.65879 12.0751 4.93557Z" fill="white" stroke="white" stroke-width="0.364302"/>
<defs>
<radialGradient id="paint0_radial_78_1711" cx="0" cy="0" r="1" gradientUnits="userSpaceOnUse" gradientTransform="translate(19.5 -0.999999) rotate(116.565) scale(26.8328)">
<stop stop-color="#2CF60B" stop-opacity="0.51"/>
<stop offset="0.640625" stop-color="#2CF60B"/>
<stop offset="1" stop-color="#2CAD2A"/>
</radialGradient>
<linearGradient id="paint1_linear_78_1711" x1="3.5" y1="16.5" x2="36.5" y2="-1.5" gradientUnits="userSpaceOnUse">
<stop offset="0.383688" stop-color="#05FF00"/>
<stop offset="1" stop-color="#16C71D" stop-opacity="0.74"/>
</linearGradient>
</defs>
</svg>
